<?xml version="1.0" encoding="UTF-8" standalone="no"?>
<!-- Created with Inkscape (http://www.inkscape.org/) -->
<svg
   xmlns:svg="http://www.w3.org/2000/svg"
   xmlns="http://www.w3.org/2000/svg"
   version="1.0"
   width="72.400002"
   height="72.400002"
   id="svg2">
  <defs
     id="defs4">
    <marker
       markerUnits="strokeWidth"
       refX="0"
       refY="5"
       markerWidth="4"
       markerHeight="3"
       orient="auto"
       viewBox="0 0 10 10"
       id="ArrowEnd">
      <path
         d="M 0,0 L 10,5 L 0,10 L 0,0 z "
         id="path7" />
    </marker>
    <marker
       markerUnits="strokeWidth"
       refX="10"
       refY="5"
       markerWidth="4"
       markerHeight="3"
       orient="auto"
       viewBox="0 0 10 10"
       id="ArrowStart">
      <path
         d="M 10,0 L 0,5 L 10,10 L 10,0 z "
         id="path10" />
    </marker>
  </defs>
  <g
     id="g12">
    <path
       d="M 72.2,36.2 C 72.2,26.6518 68.4064,17.4958 61.6553,10.7447 C 54.9042,3.9936 45.7482,0.199997 36.2,0.199997 C 26.6518,0.199997 17.4958,3.9936 10.7447,10.7447 C 3.99358,17.4958 0.2,26.6518 0.2,36.2 C 0.2,45.7482 3.99358,54.9042 10.7447,61.6553 C 17.4958,68.4064 26.6518,72.2 36.2,72.2 C 45.7482,72.2 54.9042,68.4064 61.6553,61.6553 C 68.4064,54.9042 72.2,45.7482 72.2,36.2 z "
       style="fill:none;stroke:#000000;stroke-width:0.40000001;stroke-linejoin:round"
       id="path14" />
  </g>
</svg>
