<?xml version="1.0"?>
<!-- Created by MetaPost 1.9991 on 2018.10.16:2110 -->
<svg version="1.1" xmlns="http://www.w3.org/2000/svg" xmlns:xlink="http://www.w3.org/1999/xlink" width="233.613525" height="206.970352" viewBox="0 0 233.613525 206.970352">
<!-- Original BoundingBox: -92.751389 -46.096558 140.862137 160.873795 -->
  <defs>
    <g transform="scale(0.009963,0.009963)" id="GLYPHcmmi10_75">
      <path style="fill-rule: evenodd;" d="M509.000000 -404.000000C508.000000 -407.000000,504.000000 -415.000000,504.000000 -418.000000C504.000000 -419.000000,522.000000 -433.000000,533.000000 -441.000000L708.000000 -576.000000C802.000000 -645.000000,841.000000 -649.000000,871.000000 -652.000000C879.000000 -653.000000,889.000000 -654.000000,889.000000 -672.000000C889.000000 -676.000000,886.000000 -683.000000,878.000000 -683.000000C856.000000 -683.000000,831.000000 -680.000000,807.000000 -680.000000C771.000000 -680.000000,732.000000 -683.000000,696.000000 -683.000000C689.000000 -683.000000,677.000000 -683.000000,677.000000 -663.000000C677.000000 -656.000000,682.000000 -653.000000,689.000000 -652.000000C711.000000 -650.000000,720.000000 -645.000000,720.000000 -631.000000C720.000000 -613.000000,690.000000 -590.000000,684.000000 -585.000000L294.000000 -285.000000L374.000000 -606.000000C383.000000 -642.000000,385.000000 -652.000000,458.000000 -652.000000C483.000000 -652.000000,492.000000 -652.000000,492.000000 -672.000000C492.000000 -681.000000,484.000000 -683.000000,478.000000 -683.000000C450.000000 -683.000000,378.000000 -680.000000,350.000000 -680.000000C321.000000 -680.000000,250.000000 -683.000000,221.000000 -683.000000C214.000000 -683.000000,201.000000 -683.000000,201.000000 -664.000000C201.000000 -652.000000,210.000000 -652.000000,230.000000 -652.000000C243.000000 -652.000000,261.000000 -651.000000,273.000000 -650.000000C289.000000 -648.000000,295.000000 -645.000000,295.000000 -634.000000C295.000000 -630.000000,294.000000 -627.000000,291.000000 -615.000000L157.000000 -78.000000C147.000000 -39.000000,145.000000 -31.000000,66.000000 -31.000000C49.000000 -31.000000,38.000000 -31.000000,38.000000 -12.000000C38.000000 -0.000000,50.000000 -0.000000,53.000000 -0.000000C81.000000 -0.000000,152.000000 -3.000000,180.000000 -3.000000C201.000000 -3.000000,223.000000 -2.000000,244.000000 -2.000000C266.000000 -2.000000,288.000000 -0.000000,309.000000 -0.000000C316.000000 -0.000000,329.000000 -0.000000,329.000000 -20.000000C329.000000 -31.000000,320.000000 -31.000000,301.000000 -31.000000C264.000000 -31.000000,236.000000 -31.000000,236.000000 -49.000000C236.000000 -56.000000,242.000000 -78.000000,245.000000 -93.000000C259.000000 -145.000000,272.000000 -198.000000,285.000000 -250.000000L434.000000 -366.000000L550.000000 -97.000000C562.000000 -70.000000,562.000000 -68.000000,562.000000 -62.000000C562.000000 -32.000000,519.000000 -31.000000,510.000000 -31.000000C499.000000 -31.000000,488.000000 -31.000000,488.000000 -11.000000C488.000000 -0.000000,500.000000 -0.000000,502.000000 -0.000000C542.000000 -0.000000,584.000000 -3.000000,624.000000 -3.000000C646.000000 -3.000000,700.000000 -0.000000,722.000000 -0.000000C727.000000 -0.000000,740.000000 -0.000000,740.000000 -20.000000C740.000000 -31.000000,729.000000 -31.000000,720.000000 -31.000000C679.000000 -32.000000,666.000000 -41.000000,651.000000 -76.000000"></path>
    </g>
    <g transform="scale(0.009963,0.009963)" id="GLYPHcmmi10_76">
      <path style="fill-rule: evenodd;" d="M374.000000 -605.000000C383.000000 -641.000000,386.000000 -652.000000,480.000000 -652.000000C510.000000 -652.000000,518.000000 -652.000000,518.000000 -671.000000C518.000000 -683.000000,507.000000 -683.000000,502.000000 -683.000000C469.000000 -683.000000,387.000000 -680.000000,354.000000 -680.000000C324.000000 -680.000000,251.000000 -683.000000,221.000000 -683.000000C214.000000 -683.000000,202.000000 -683.000000,202.000000 -663.000000C202.000000 -652.000000,211.000000 -652.000000,230.000000 -652.000000C232.000000 -652.000000,251.000000 -652.000000,268.000000 -650.000000C286.000000 -648.000000,295.000000 -647.000000,295.000000 -634.000000C295.000000 -630.000000,294.000000 -627.000000,291.000000 -615.000000L157.000000 -78.000000C147.000000 -39.000000,145.000000 -31.000000,66.000000 -31.000000C49.000000 -31.000000,39.000000 -31.000000,39.000000 -11.000000C39.000000 -0.000000,48.000000 -0.000000,66.000000 -0.000000L529.000000 -0.000000C553.000000 -0.000000,554.000000 -0.000000,560.000000 -17.000000L639.000000 -233.000000C643.000000 -244.000000,643.000000 -246.000000,643.000000 -247.000000C643.000000 -251.000000,640.000000 -258.000000,631.000000 -258.000000C622.000000 -258.000000,621.000000 -253.000000,614.000000 -237.000000C580.000000 -145.000000,536.000000 -31.000000,363.000000 -31.000000L269.000000 -31.000000C255.000000 -31.000000,253.000000 -31.000000,247.000000 -32.000000C237.000000 -33.000000,234.000000 -34.000000,234.000000 -42.000000C234.000000 -45.000000,234.000000 -47.000000,239.000000 -65.000000"></path>
    </g>
    <g transform="scale(0.009963,0.009963)" id="GLYPHcmmi10_77">
      <path style="fill-rule: evenodd;" d="M926.000000 -606.000000C935.000000 -642.000000,937.000000 -652.000000,1012.000000 -652.000000C1035.000000 -652.000000,1044.000000 -652.000000,1044.000000 -672.000000C1044.000000 -683.000000,1034.000000 -683.000000,1017.000000 -683.000000L885.000000 -683.000000C859.000000 -683.000000,858.000000 -683.000000,846.000000 -664.000000L481.000000 -94.000000L403.000000 -660.000000C400.000000 -683.000000,398.000000 -683.000000,372.000000 -683.000000L235.000000 -683.000000C216.000000 -683.000000,205.000000 -683.000000,205.000000 -664.000000C205.000000 -652.000000,214.000000 -652.000000,234.000000 -652.000000C247.000000 -652.000000,265.000000 -651.000000,277.000000 -650.000000C293.000000 -648.000000,299.000000 -645.000000,299.000000 -634.000000C299.000000 -630.000000,298.000000 -627.000000,295.000000 -615.000000L168.000000 -106.000000C158.000000 -66.000000,141.000000 -34.000000,60.000000 -31.000000C55.000000 -31.000000,42.000000 -30.000000,42.000000 -12.000000C42.000000 -3.000000,48.000000 -0.000000,56.000000 -0.000000C88.000000 -0.000000,123.000000 -3.000000,156.000000 -3.000000C190.000000 -3.000000,226.000000 -0.000000,259.000000 -0.000000C264.000000 -0.000000,277.000000 -0.000000,277.000000 -20.000000C277.000000 -31.000000,266.000000 -31.000000,259.000000 -31.000000C202.000000 -32.000000,191.000000 -52.000000,191.000000 -75.000000C191.000000 -82.000000,192.000000 -87.000000,195.000000 -98.000000L331.000000 -643.000000L332.000000 -643.000000L418.000000 -23.000000C420.000000 -11.000000,421.000000 -0.000000,433.000000 -0.000000C444.000000 -0.000000,450.000000 -11.000000,455.000000 -18.000000L859.000000 -651.000000L860.000000 -651.000000L717.000000 -78.000000C707.000000 -39.000000,705.000000 -31.000000,626.000000 -31.000000C609.000000 -31.000000,598.000000 -31.000000,598.000000 -12.000000C598.000000 -0.000000,610.000000 -0.000000,613.000000 -0.000000C641.000000 -0.000000,709.000000 -3.000000,737.000000 -3.000000C778.000000 -3.000000,821.000000 -0.000000,862.000000 -0.000000C868.000000 -0.000000,881.000000 -0.000000,881.000000 -20.000000C881.000000 -31.000000,872.000000 -31.000000,853.000000 -31.000000C816.000000 -31.000000,788.000000 -31.000000,788.000000 -49.000000C788.000000 -53.000000,788.000000 -55.000000,793.000000 -73.000000"></path>
    </g>
    <g transform="scale(0.009963,0.009963)" id="GLYPHcmmi10_78">
      <path style="fill-rule: evenodd;" d="M756.000000 -578.000000C766.000000 -618.000000,784.000000 -649.000000,864.000000 -652.000000C869.000000 -652.000000,881.000000 -653.000000,881.000000 -672.000000C881.000000 -673.000000,881.000000 -683.000000,868.000000 -683.000000C835.000000 -683.000000,800.000000 -680.000000,767.000000 -680.000000C733.000000 -680.000000,698.000000 -683.000000,665.000000 -683.000000C659.000000 -683.000000,647.000000 -683.000000,647.000000 -663.000000C647.000000 -652.000000,657.000000 -652.000000,665.000000 -652.000000C722.000000 -651.000000,733.000000 -630.000000,733.000000 -608.000000C733.000000 -605.000000,731.000000 -590.000000,730.000000 -587.000000L618.000000 -142.000000L397.000000 -664.000000C389.000000 -682.000000,388.000000 -683.000000,365.000000 -683.000000L231.000000 -683.000000C211.000000 -683.000000,202.000000 -683.000000,202.000000 -663.000000C202.000000 -652.000000,211.000000 -652.000000,230.000000 -652.000000C235.000000 -652.000000,298.000000 -652.000000,298.000000 -643.000000L164.000000 -106.000000C154.000000 -66.000000,137.000000 -34.000000,56.000000 -31.000000C50.000000 -31.000000,39.000000 -30.000000,39.000000 -11.000000C39.000000 -4.000000,44.000000 -0.000000,52.000000 -0.000000C84.000000 -0.000000,119.000000 -3.000000,152.000000 -3.000000C186.000000 -3.000000,222.000000 -0.000000,255.000000 -0.000000C260.000000 -0.000000,273.000000 -0.000000,273.000000 -20.000000C273.000000 -30.000000,264.000000 -31.000000,253.000000 -31.000000C195.000000 -33.000000,187.000000 -55.000000,187.000000 -75.000000C187.000000 -82.000000,188.000000 -87.000000,191.000000 -98.000000L323.000000 -626.000000C327.000000 -620.000000,327.000000 -618.000000,332.000000 -608.000000L581.000000 -19.000000C588.000000 -2.000000,591.000000 -0.000000,600.000000 -0.000000C611.000000 -0.000000,611.000000 -3.000000,616.000000 -21.000000"></path>
    </g>
    <g transform="scale(0.009963,0.009963)" id="GLYPHcmmi10_81">
      <path style="fill-rule: evenodd;" d="M438.000000 -6.000000C593.000000 -65.000000,740.000000 -243.000000,740.000000 -436.000000C740.000000 -597.000000,634.000000 -705.000000,485.000000 -705.000000C269.000000 -705.000000,49.000000 -478.000000,49.000000 -245.000000C49.000000 -79.000000,161.000000 22.000000,305.000000 22.000000C330.000000 22.000000,364.000000 18.000000,403.000000 7.000000C399.000000 69.000000,399.000000 71.000000,399.000000 84.000000C399.000000 116.000000,399.000000 194.000000,482.000000 194.000000C601.000000 194.000000,649.000000 11.000000,649.000000 -0.000000C649.000000 -7.000000,642.000000 -10.000000,638.000000 -10.000000C630.000000 -10.000000,628.000000 -5.000000,626.000000 1.000000C602.000000 72.000000,544.000000 97.000000,509.000000 97.000000C463.000000 97.000000,448.000000 70.000000,438.000000 -6.000000M249.000000 -14.000000C171.000000 -45.000000,137.000000 -123.000000,137.000000 -213.000000C137.000000 -282.000000,163.000000 -424.000000,239.000000 -532.000000C312.000000 -634.000000,406.000000 -680.000000,479.000000 -680.000000C579.000000 -680.000000,652.000000 -602.000000,652.000000 -468.000000C652.000000 -368.000000,601.000000 -134.000000,433.000000 -40.000000C428.000000 -75.000000,418.000000 -148.000000,345.000000 -148.000000C292.000000 -148.000000,243.000000 -98.000000,243.000000 -46.000000C243.000000 -26.000000,249.000000 -15.000000,249.000000 -14.000000M311.000000 -3.000000C297.000000 -3.000000,265.000000 -3.000000,265.000000 -46.000000C265.000000 -86.000000,303.000000 -126.000000,345.000000 -126.000000C387.000000 -126.000000,406.000000 -102.000000,406.000000 -41.000000C406.000000 -26.000000,405.000000 -25.000000,395.000000 -21.000000C369.000000 -10.000000,339.000000 -3.000000,311.000000 -3.000000"></path>
    </g>
    <g transform="scale(0.009963,0.009963)" id="GLYPHcmmi10_120">
      <path style="fill-rule: evenodd;" d="M334.000000 -302.000000C340.000000 -328.000000,363.000000 -420.000000,433.000000 -420.000000C438.000000 -420.000000,462.000000 -420.000000,483.000000 -407.000000C455.000000 -402.000000,435.000000 -377.000000,435.000000 -353.000000C435.000000 -337.000000,446.000000 -318.000000,473.000000 -318.000000C495.000000 -318.000000,527.000000 -336.000000,527.000000 -376.000000C527.000000 -428.000000,468.000000 -442.000000,434.000000 -442.000000C376.000000 -442.000000,341.000000 -389.000000,329.000000 -366.000000C304.000000 -432.000000,250.000000 -442.000000,221.000000 -442.000000C117.000000 -442.000000,60.000000 -313.000000,60.000000 -288.000000C60.000000 -278.000000,70.000000 -278.000000,72.000000 -278.000000C80.000000 -278.000000,83.000000 -280.000000,85.000000 -289.000000C119.000000 -395.000000,185.000000 -420.000000,219.000000 -420.000000C238.000000 -420.000000,273.000000 -411.000000,273.000000 -353.000000C273.000000 -322.000000,256.000000 -255.000000,219.000000 -115.000000C203.000000 -53.000000,168.000000 -11.000000,124.000000 -11.000000C118.000000 -11.000000,95.000000 -11.000000,74.000000 -24.000000C99.000000 -29.000000,121.000000 -50.000000,121.000000 -78.000000C121.000000 -105.000000,99.000000 -113.000000,84.000000 -113.000000C54.000000 -113.000000,29.000000 -87.000000,29.000000 -55.000000C29.000000 -9.000000,79.000000 11.000000,123.000000 11.000000C189.000000 11.000000,225.000000 -59.000000,228.000000 -65.000000C240.000000 -28.000000,276.000000 11.000000,336.000000 11.000000C439.000000 11.000000,496.000000 -118.000000,496.000000 -143.000000C496.000000 -153.000000,487.000000 -153.000000,484.000000 -153.000000C475.000000 -153.000000,473.000000 -149.000000,471.000000 -142.000000C438.000000 -35.000000,370.000000 -11.000000,338.000000 -11.000000C299.000000 -11.000000,283.000000 -43.000000,283.000000 -77.000000C283.000000 -99.000000,289.000000 -121.000000,300.000000 -165.000000"></path>
    </g>
    <g transform="scale(0.009963,0.009963)" id="GLYPHcmmi10_121">
      <path style="fill-rule: evenodd;" d="M486.000000 -381.000000C490.000000 -395.000000,490.000000 -397.000000,490.000000 -404.000000C490.000000 -422.000000,476.000000 -431.000000,461.000000 -431.000000C451.000000 -431.000000,435.000000 -425.000000,426.000000 -410.000000C424.000000 -405.000000,416.000000 -374.000000,412.000000 -356.000000C405.000000 -330.000000,398.000000 -303.000000,392.000000 -276.000000L347.000000 -96.000000C343.000000 -81.000000,300.000000 -11.000000,234.000000 -11.000000C183.000000 -11.000000,172.000000 -55.000000,172.000000 -92.000000C172.000000 -138.000000,189.000000 -200.000000,223.000000 -288.000000C239.000000 -329.000000,243.000000 -340.000000,243.000000 -360.000000C243.000000 -405.000000,211.000000 -442.000000,161.000000 -442.000000C66.000000 -442.000000,29.000000 -297.000000,29.000000 -288.000000C29.000000 -278.000000,39.000000 -278.000000,41.000000 -278.000000C51.000000 -278.000000,52.000000 -280.000000,57.000000 -296.000000C84.000000 -390.000000,124.000000 -420.000000,158.000000 -420.000000C166.000000 -420.000000,183.000000 -420.000000,183.000000 -388.000000C183.000000 -363.000000,173.000000 -337.000000,166.000000 -318.000000C126.000000 -212.000000,108.000000 -155.000000,108.000000 -108.000000C108.000000 -19.000000,171.000000 11.000000,230.000000 11.000000C269.000000 11.000000,303.000000 -6.000000,331.000000 -34.000000C318.000000 18.000000,306.000000 67.000000,266.000000 120.000000C240.000000 154.000000,202.000000 183.000000,156.000000 183.000000C142.000000 183.000000,97.000000 180.000000,80.000000 141.000000C96.000000 141.000000,109.000000 141.000000,123.000000 129.000000C133.000000 120.000000,143.000000 107.000000,143.000000 88.000000C143.000000 57.000000,116.000000 53.000000,106.000000 53.000000C83.000000 53.000000,50.000000 69.000000,50.000000 118.000000C50.000000 168.000000,94.000000 205.000000,156.000000 205.000000C259.000000 205.000000,362.000000 114.000000,390.000000 1.000000"></path>
    </g>
    <g transform="scale(0.009963,0.009963)" id="GLYPHcmmi10_122">
      <path style="fill-rule: evenodd;" d="M133.000000 -83.000000C187.000000 -141.000000,216.000000 -166.000000,252.000000 -197.000000C252.000000 -198.000000,314.000000 -251.000000,350.000000 -287.000000C445.000000 -380.000000,467.000000 -428.000000,467.000000 -432.000000C467.000000 -442.000000,458.000000 -442.000000,456.000000 -442.000000C449.000000 -442.000000,446.000000 -440.000000,441.000000 -431.000000C411.000000 -383.000000,390.000000 -367.000000,366.000000 -367.000000C342.000000 -367.000000,330.000000 -382.000000,315.000000 -399.000000C296.000000 -422.000000,279.000000 -442.000000,246.000000 -442.000000C171.000000 -442.000000,125.000000 -349.000000,125.000000 -328.000000C125.000000 -323.000000,128.000000 -317.000000,137.000000 -317.000000C146.000000 -317.000000,148.000000 -322.000000,150.000000 -328.000000C169.000000 -374.000000,227.000000 -375.000000,235.000000 -375.000000C256.000000 -375.000000,275.000000 -368.000000,298.000000 -360.000000C338.000000 -345.000000,349.000000 -345.000000,375.000000 -345.000000C339.000000 -302.000000,255.000000 -230.000000,236.000000 -214.000000L146.000000 -130.000000C78.000000 -63.000000,43.000000 -6.000000,43.000000 1.000000C43.000000 11.000000,53.000000 11.000000,55.000000 11.000000C63.000000 11.000000,65.000000 9.000000,71.000000 -2.000000C94.000000 -37.000000,124.000000 -64.000000,156.000000 -64.000000C179.000000 -64.000000,189.000000 -55.000000,214.000000 -26.000000C231.000000 -5.000000,249.000000 11.000000,278.000000 11.000000C377.000000 11.000000,435.000000 -116.000000,435.000000 -143.000000C435.000000 -148.000000,431.000000 -153.000000,423.000000 -153.000000C414.000000 -153.000000,412.000000 -147.000000,409.000000 -140.000000C386.000000 -75.000000,322.000000 -56.000000,289.000000 -56.000000C269.000000 -56.000000,251.000000 -62.000000,230.000000 -69.000000C196.000000 -82.000000,181.000000 -86.000000,160.000000 -86.000000C158.000000 -86.000000,142.000000 -86.000000,133.000000 -83.000000"></path>
    </g>
  </defs>
  <path d="M92.000000 160.000000L218.305008 177.750168" style="stroke:rgb(89.999390%,89.999390%,89.999390%); stroke-width: 0.500000;stroke-linecap: round;stroke-linejoin: round;stroke-miterlimit: 10.000000;fill: none;"></path>
  <path d="M92.000000 160.000000L11.087982 188.096771" style="stroke:rgb(89.999390%,89.999390%,89.999390%); stroke-width: 0.500000;stroke-linecap: round;stroke-linejoin: round;stroke-miterlimit: 10.000000;fill: none;"></path>
  <path d="M78.514282 164.682922L204.820053 182.433090" style="stroke:rgb(89.999390%,89.999390%,89.999390%); stroke-width: 0.500000;stroke-linecap: round;stroke-linejoin: round;stroke-miterlimit: 10.000000;fill: none;"></path>
  <path d="M113.051025 162.958679L32.139008 191.055069" style="stroke:rgb(89.999390%,89.999390%,89.999390%); stroke-width: 0.500000;stroke-linecap: round;stroke-linejoin: round;stroke-miterlimit: 10.000000;fill: none;"></path>
  <path d="M65.029327 169.365082L191.334335 187.115631" style="stroke:rgb(89.999390%,89.999390%,89.999390%); stroke-width: 0.500000;stroke-linecap: round;stroke-linejoin: round;stroke-miterlimit: 10.000000;fill: none;"></path>
  <path d="M134.101669 165.916595L53.189651 194.012985" style="stroke:rgb(89.999390%,89.999390%,89.999390%); stroke-width: 0.500000;stroke-linecap: round;stroke-linejoin: round;stroke-miterlimit: 10.000000;fill: none;"></path>
  <path d="M51.543991 174.048767L177.849380 191.798553" style="stroke:rgb(89.999390%,89.999390%,89.999390%); stroke-width: 0.500000;stroke-linecap: round;stroke-linejoin: round;stroke-miterlimit: 10.000000;fill: none;"></path>
  <path d="M155.152313 168.874893L74.241058 196.971664" style="stroke:rgb(89.999390%,89.999390%,89.999390%); stroke-width: 0.500000;stroke-linecap: round;stroke-linejoin: round;stroke-miterlimit: 10.000000;fill: none;"></path>
  <path d="M38.058655 178.730927L164.363663 196.481476" style="stroke:rgb(89.999390%,89.999390%,89.999390%); stroke-width: 0.500000;stroke-linecap: round;stroke-linejoin: round;stroke-miterlimit: 10.000000;fill: none;"></path>
  <path d="M176.203339 171.833572L95.291321 199.929962" style="stroke:rgb(89.999390%,89.999390%,89.999390%); stroke-width: 0.500000;stroke-linecap: round;stroke-linejoin: round;stroke-miterlimit: 10.000000;fill: none;"></path>
  <path d="M24.573318 183.413849L150.878326 201.164017" style="stroke:rgb(89.999390%,89.999390%,89.999390%); stroke-width: 0.500000;stroke-linecap: round;stroke-linejoin: round;stroke-miterlimit: 10.000000;fill: none;"></path>
  <path d="M197.254364 174.792252L116.342346 202.888641" style="stroke:rgb(89.999390%,89.999390%,89.999390%); stroke-width: 0.500000;stroke-linecap: round;stroke-linejoin: round;stroke-miterlimit: 10.000000;fill: none;"></path>
  <path d="M11.087982 188.096771L137.393372 205.846558" style="stroke:rgb(89.999390%,89.999390%,89.999390%); stroke-width: 0.500000;stroke-linecap: round;stroke-linejoin: round;stroke-miterlimit: 10.000000;fill: none;"></path>
  <path d="M218.305008 177.750168L137.393372 205.846558" style="stroke:rgb(89.999390%,89.999390%,89.999390%); stroke-width: 0.500000;stroke-linecap: round;stroke-linejoin: round;stroke-miterlimit: 10.000000;fill: none;"></path>
  <path d="M92.000000 160.000000L91.785233 13.729630" style="stroke:rgb(89.999390%,89.999390%,89.999390%); stroke-width: 0.500000;stroke-linecap: round;stroke-linejoin: round;stroke-miterlimit: 10.000000;fill: none;"></path>
  <path d="M113.051025 162.958679L112.835876 16.687546" style="stroke:rgb(89.999390%,89.999390%,89.999390%); stroke-width: 0.500000;stroke-linecap: round;stroke-linejoin: round;stroke-miterlimit: 10.000000;fill: none;"></path>
  <path d="M134.101669 165.916595L133.886902 19.646225" style="stroke:rgb(89.999390%,89.999390%,89.999390%); stroke-width: 0.500000;stroke-linecap: round;stroke-linejoin: round;stroke-miterlimit: 10.000000;fill: none;"></path>
  <path d="M155.152313 168.874893L154.937927 22.604523" style="stroke:rgb(89.999390%,89.999390%,89.999390%); stroke-width: 0.500000;stroke-linecap: round;stroke-linejoin: round;stroke-miterlimit: 10.000000;fill: none;"></path>
  <path d="M176.203339 171.833572L175.988571 25.562820" style="stroke:rgb(89.999390%,89.999390%,89.999390%); stroke-width: 0.500000;stroke-linecap: round;stroke-linejoin: round;stroke-miterlimit: 10.000000;fill: none;"></path>
  <path d="M197.254364 174.792252L197.039597 28.521118" style="stroke:rgb(89.999390%,89.999390%,89.999390%); stroke-width: 0.500000;stroke-linecap: round;stroke-linejoin: round;stroke-miterlimit: 10.000000;fill: none;"></path>
  <path d="M218.305008 177.750168L218.090240 31.479797" style="stroke:rgb(89.999390%,89.999390%,89.999390%); stroke-width: 0.500000;stroke-linecap: round;stroke-linejoin: round;stroke-miterlimit: 10.000000;fill: none;"></path>
  <path d="M92.000000 160.000000L218.305008 177.750168" style="stroke:rgb(89.999390%,89.999390%,89.999390%); stroke-width: 0.500000;stroke-linecap: round;stroke-linejoin: round;stroke-miterlimit: 10.000000;fill: none;"></path>
  <path d="M91.963760 135.621796L218.269531 153.371582" style="stroke:rgb(89.999390%,89.999390%,89.999390%); stroke-width: 0.500000;stroke-linecap: round;stroke-linejoin: round;stroke-miterlimit: 10.000000;fill: none;"></path>
  <path d="M91.928665 111.243591L218.234055 128.992615" style="stroke:rgb(89.999390%,89.999390%,89.999390%); stroke-width: 0.500000;stroke-linecap: round;stroke-linejoin: round;stroke-miterlimit: 10.000000;fill: none;"></path>
  <path d="M91.892426 86.865005L218.197815 104.614410" style="stroke:rgb(89.999390%,89.999390%,89.999390%); stroke-width: 0.500000;stroke-linecap: round;stroke-linejoin: round;stroke-miterlimit: 10.000000;fill: none;"></path>
  <path d="M91.856949 62.486420L218.161957 80.236588" style="stroke:rgb(89.999390%,89.999390%,89.999390%); stroke-width: 0.500000;stroke-linecap: round;stroke-linejoin: round;stroke-miterlimit: 10.000000;fill: none;"></path>
  <path d="M91.821091 38.107834L218.126480 55.858002" style="stroke:rgb(89.999390%,89.999390%,89.999390%); stroke-width: 0.500000;stroke-linecap: round;stroke-linejoin: round;stroke-miterlimit: 10.000000;fill: none;"></path>
  <path d="M91.785233 13.729630L218.090240 31.479797" style="stroke:rgb(89.999390%,89.999390%,89.999390%); stroke-width: 0.500000;stroke-linecap: round;stroke-linejoin: round;stroke-miterlimit: 10.000000;fill: none;"></path>
  <path d="M92.000000 160.000000L11.087982 188.096771" style="stroke:rgb(89.999390%,89.999390%,89.999390%); stroke-width: 0.500000;stroke-linecap: round;stroke-linejoin: round;stroke-miterlimit: 10.000000;fill: none;"></path>
  <path d="M91.963760 135.621796L11.052124 163.718185" style="stroke:rgb(89.999390%,89.999390%,89.999390%); stroke-width: 0.500000;stroke-linecap: round;stroke-linejoin: round;stroke-miterlimit: 10.000000;fill: none;"></path>
  <path d="M91.928665 111.243591L11.016266 139.340363" style="stroke:rgb(89.999390%,89.999390%,89.999390%); stroke-width: 0.500000;stroke-linecap: round;stroke-linejoin: round;stroke-miterlimit: 10.000000;fill: none;"></path>
  <path d="M91.892426 86.865005L10.980408 114.961777" style="stroke:rgb(89.999390%,89.999390%,89.999390%); stroke-width: 0.500000;stroke-linecap: round;stroke-linejoin: round;stroke-miterlimit: 10.000000;fill: none;"></path>
  <path d="M91.856949 62.486420L10.944931 90.582809" style="stroke:rgb(89.999390%,89.999390%,89.999390%); stroke-width: 0.500000;stroke-linecap: round;stroke-linejoin: round;stroke-miterlimit: 10.000000;fill: none;"></path>
  <path d="M91.821091 38.107834L10.909073 66.204605" style="stroke:rgb(89.999390%,89.999390%,89.999390%); stroke-width: 0.500000;stroke-linecap: round;stroke-linejoin: round;stroke-miterlimit: 10.000000;fill: none;"></path>
  <path d="M91.785233 13.729630L10.873215 41.826401" style="stroke:rgb(89.999390%,89.999390%,89.999390%); stroke-width: 0.500000;stroke-linecap: round;stroke-linejoin: round;stroke-miterlimit: 10.000000;fill: none;"></path>
  <path d="M92.000000 160.000000L91.785233 13.729630" style="stroke:rgb(89.999390%,89.999390%,89.999390%); stroke-width: 0.500000;stroke-linecap: round;stroke-linejoin: round;stroke-miterlimit: 10.000000;fill: none;"></path>
  <path d="M78.514282 164.682922L78.299896 18.412552" style="stroke:rgb(89.999390%,89.999390%,89.999390%); stroke-width: 0.500000;stroke-linecap: round;stroke-linejoin: round;stroke-miterlimit: 10.000000;fill: none;"></path>
  <path d="M65.029327 169.365082L64.814941 23.095093" style="stroke:rgb(89.999390%,89.999390%,89.999390%); stroke-width: 0.500000;stroke-linecap: round;stroke-linejoin: round;stroke-miterlimit: 10.000000;fill: none;"></path>
  <path d="M51.543991 174.048767L51.329224 27.777634" style="stroke:rgb(89.999390%,89.999390%,89.999390%); stroke-width: 0.500000;stroke-linecap: round;stroke-linejoin: round;stroke-miterlimit: 10.000000;fill: none;"></path>
  <path d="M38.058655 178.730927L37.843506 32.460556" style="stroke:rgb(89.999390%,89.999390%,89.999390%); stroke-width: 0.500000;stroke-linecap: round;stroke-linejoin: round;stroke-miterlimit: 10.000000;fill: none;"></path>
  <path d="M24.573318 183.413849L24.358551 37.143478" style="stroke:rgb(89.999390%,89.999390%,89.999390%); stroke-width: 0.500000;stroke-linecap: round;stroke-linejoin: round;stroke-miterlimit: 10.000000;fill: none;"></path>
  <path d="M11.087982 188.096771L10.873215 41.826401" style="stroke:rgb(89.999390%,89.999390%,89.999390%); stroke-width: 0.500000;stroke-linecap: round;stroke-linejoin: round;stroke-miterlimit: 10.000000;fill: none;"></path>
  <path d="M92.000000 160.000000L7.042496 189.501343" style="stroke:rgb(0.000000%,0.000000%,0.000000%); stroke-width: 0.500000;stroke-linecap: round;stroke-linejoin: round;stroke-miterlimit: 10.000000;fill: none;"></path>
  <path d="M10.031509 186.842926L7.042496 189.501343L11.035812 189.735168Z" style="stroke:rgb(0.000000%,0.000000%,0.000000%); stroke-width: 0.500000;fill: rgb(0.000000%,0.000000%,0.000000%);"></path>
  <g transform="translate(-0.751389 193.056198)" style="fill: rgb(0.000000%,0.000000%,0.000000%);">
    <use xlink:href="#GLYPHcmmi10_120"></use>
  </g>
  <path d="M92.000000 160.000000L224.620239 178.637466" style="stroke:rgb(0.000000%,0.000000%,0.000000%); stroke-width: 0.500000;stroke-linecap: round;stroke-linejoin: round;stroke-miterlimit: 10.000000;fill: none;"></path>
  <path d="M220.748489 179.638840L224.620239 178.637466L221.174454 176.607742Z" style="stroke:rgb(0.000000%,0.000000%,0.000000%); stroke-width: 0.500000;fill: rgb(0.000000%,0.000000%,0.000000%);"></path>
  <g transform="translate(227.620239 179.813629)" style="fill: rgb(0.000000%,0.000000%,0.000000%);">
    <use xlink:href="#GLYPHcmmi10_121"></use>
  </g>
  <path d="M92.000000 160.000000L91.774170 6.415710" style="stroke:rgb(0.000000%,0.000000%,0.000000%); stroke-width: 0.500000;stroke-linecap: round;stroke-linejoin: round;stroke-miterlimit: 10.000000;fill: none;"></path>
  <path d="M93.310501 10.109283L91.774170 6.415710L90.248703 10.113770Z" style="stroke:rgb(0.000000%,0.000000%,0.000000%); stroke-width: 0.500000;fill: rgb(0.000000%,0.000000%,0.000000%);"></path>
  <g transform="translate(89.238510 3.415710)" style="fill: rgb(0.000000%,0.000000%,0.000000%);">
    <use xlink:href="#GLYPHcmmi10_122"></use>
  </g>
  <path d="M92.000000 160.000000L176.203339 171.833572" style="stroke:rgb(0.000000%,0.000000%,0.000000%); stroke-width: 1.199997;stroke-linecap: round;stroke-dasharray: 6.000000 6.000000 ;stroke-linejoin: round;stroke-miterlimit: 10.000000;fill: none;"></path>
  <path d="M176.203339 171.833572L135.747711 185.881577" style="stroke:rgb(0.000000%,0.000000%,0.000000%); stroke-width: 1.199997;stroke-linecap: round;stroke-linejoin: round;stroke-miterlimit: 10.000000;fill: none;"></path>
  <path d="M135.747711 185.881577L51.543991 174.048767" style="stroke:rgb(0.000000%,0.000000%,0.000000%); stroke-width: 1.199997;stroke-linecap: round;stroke-linejoin: round;stroke-miterlimit: 10.000000;fill: none;"></path>
  <path d="M51.543991 174.048767L92.000000 160.000000" style="stroke:rgb(0.000000%,0.000000%,0.000000%); stroke-width: 1.199997;stroke-linecap: round;stroke-dasharray: 6.000000 6.000000 ;stroke-linejoin: round;stroke-miterlimit: 10.000000;fill: none;"></path>
  <path d="M92.000000 160.000000L91.785233 13.729630" style="stroke:rgb(0.000000%,0.000000%,0.000000%); stroke-width: 1.199997;stroke-linecap: round;stroke-linejoin: round;stroke-miterlimit: 10.000000;fill: none;"></path>
  <path d="M176.203339 171.833572L91.785233 13.729630" style="stroke:rgb(0.000000%,0.000000%,0.000000%); stroke-width: 1.199997;stroke-linecap: round;stroke-linejoin: round;stroke-miterlimit: 10.000000;fill: none;"></path>
  <path d="M135.747711 185.881577L91.785233 13.729630" style="stroke:rgb(0.000000%,0.000000%,0.000000%); stroke-width: 1.199997;stroke-linecap: round;stroke-linejoin: round;stroke-miterlimit: 10.000000;fill: none;"></path>
  <path d="M51.543991 174.048767L91.785233 13.729630" style="stroke:rgb(0.000000%,0.000000%,0.000000%); stroke-width: 1.199997;stroke-linecap: round;stroke-linejoin: round;stroke-miterlimit: 10.000000;fill: none;"></path>
  <path d="M92.000000 160.000000l0 0" style="stroke:rgb(0.000000%,0.000000%,0.000000%); stroke-width: 3.000000;stroke-linecap: round;stroke-linejoin: round;stroke-miterlimit: 10.000000;fill: none;"></path>
  <path d="M176.203339 171.833572l0 0" style="stroke:rgb(0.000000%,0.000000%,0.000000%); stroke-width: 3.000000;stroke-linecap: round;stroke-linejoin: round;stroke-miterlimit: 10.000000;fill: none;"></path>
  <path d="M135.747711 185.881577l0 0" style="stroke:rgb(0.000000%,0.000000%,0.000000%); stroke-width: 3.000000;stroke-linecap: round;stroke-linejoin: round;stroke-miterlimit: 10.000000;fill: none;"></path>
  <path d="M51.543991 174.048767l0 0" style="stroke:rgb(0.000000%,0.000000%,0.000000%); stroke-width: 3.000000;stroke-linecap: round;stroke-linejoin: round;stroke-miterlimit: 10.000000;fill: none;"></path>
  <path d="M91.785233 13.729630l0 0" style="stroke:rgb(0.000000%,0.000000%,0.000000%); stroke-width: 3.000000;stroke-linecap: round;stroke-linejoin: round;stroke-miterlimit: 10.000000;fill: none;"></path>
  <path d="M155.098816 132.307587l0 0" style="stroke:rgb(0.000000%,0.000000%,0.000000%); stroke-width: 2.199997;stroke-linecap: round;stroke-linejoin: round;stroke-miterlimit: 10.000000;fill: none;"></path>
  <path d="M133.994278 92.781601l0 0" style="stroke:rgb(0.000000%,0.000000%,0.000000%); stroke-width: 2.199997;stroke-linecap: round;stroke-linejoin: round;stroke-miterlimit: 10.000000;fill: none;"></path>
  <path d="M112.889755 53.255615l0 0" style="stroke:rgb(0.000000%,0.000000%,0.000000%); stroke-width: 2.199997;stroke-linecap: round;stroke-linejoin: round;stroke-miterlimit: 10.000000;fill: none;"></path>
  <path d="M124.757095 142.843582l0 0" style="stroke:rgb(0.000000%,0.000000%,0.000000%); stroke-width: 2.199997;stroke-linecap: round;stroke-linejoin: round;stroke-miterlimit: 10.000000;fill: none;"></path>
  <path d="M113.766464 99.805603l0 0" style="stroke:rgb(0.000000%,0.000000%,0.000000%); stroke-width: 2.199997;stroke-linecap: round;stroke-linejoin: round;stroke-miterlimit: 10.000000;fill: none;"></path>
  <path d="M102.775848 56.767609l0 0" style="stroke:rgb(0.000000%,0.000000%,0.000000%); stroke-width: 2.199997;stroke-linecap: round;stroke-linejoin: round;stroke-miterlimit: 10.000000;fill: none;"></path>
  <path d="M64.957535 120.609863l0 0" style="stroke:rgb(0.000000%,0.000000%,0.000000%); stroke-width: 2.199997;stroke-linecap: round;stroke-linejoin: round;stroke-miterlimit: 10.000000;fill: none;"></path>
  <path d="M78.371689 67.168533l0 0" style="stroke:rgb(0.000000%,0.000000%,0.000000%); stroke-width: 2.199997;stroke-linecap: round;stroke-linejoin: round;stroke-miterlimit: 10.000000;fill: none;"></path>
  <g transform="translate(108.463882 159.958389)" style="fill: rgb(0.000000%,0.000000%,0.000000%);">
    <use xlink:href="#GLYPHcmmi10_75"></use>
  </g>
  <path d="M113.050842 162.958389l0 0" style="stroke:rgb(0.000000%,0.000000%,0.000000%); stroke-width: 3.000000;stroke-linecap: round;stroke-linejoin: round;stroke-miterlimit: 10.000000;fill: none;"></path>
  <g transform="translate(82.184097 139.024765)" style="fill: rgb(0.000000%,0.000000%,0.000000%);">
    <use xlink:href="#GLYPHcmmi10_76"></use>
  </g>
  <path d="M91.964203 135.620865l0 0" style="stroke:rgb(0.000000%,0.000000%,0.000000%); stroke-width: 3.000000;stroke-linecap: round;stroke-linejoin: round;stroke-miterlimit: 10.000000;fill: none;"></path>
  <g transform="translate(65.520401 65.068542)" style="fill: rgb(0.000000%,0.000000%,0.000000%);">
    <use xlink:href="#GLYPHcmmi10_77"></use>
  </g>
  <path d="M78.371689 67.168533l0 0" style="stroke:rgb(0.000000%,0.000000%,0.000000%); stroke-width: 3.000000;stroke-linecap: round;stroke-linejoin: round;stroke-miterlimit: 10.000000;fill: none;"></path>
  <g transform="translate(157.198807 130.207596)" style="fill: rgb(0.000000%,0.000000%,0.000000%);">
    <use xlink:href="#GLYPHcmmi10_78"></use>
  </g>
  <path d="M155.098816 132.307587l0 0" style="stroke:rgb(0.000000%,0.000000%,0.000000%); stroke-width: 3.000000;stroke-linecap: round;stroke-linejoin: round;stroke-miterlimit: 10.000000;fill: none;"></path>
  <g transform="translate(89.707855 191.272980)" style="fill: rgb(0.000000%,0.000000%,0.000000%);">
    <use xlink:href="#GLYPHcmmi10_81"></use>
  </g>
  <path d="M93.645859 179.965179l0 0" style="stroke:rgb(0.000000%,0.000000%,0.000000%); stroke-width: 3.000000;stroke-linecap: round;stroke-linejoin: round;stroke-miterlimit: 10.000000;fill: none;"></path>
</svg>
